<?xml version="1.0" encoding="UTF-8" standalone="no"?>
<!DOCTYPE svg PUBLIC "-//W3C//DTD SVG 1.1//EN" "http://www.w3.org/Graphics/SVG/1.1/DTD/svg11.dtd">
<svg width="100%" height="100%" viewBox="0 0 698 688" version="1.1" xmlns="http://www.w3.org/2000/svg" xmlns:xlink="http://www.w3.org/1999/xlink" xml:space="preserve" xmlns:serif="http://www.serif.com/" style="fill-rule:evenodd;clip-rule:evenodd;stroke-linejoin:round;stroke-miterlimit:2;">
    <g transform="matrix(1,0,0,1,-271.09,-921.216)">
        <g transform="matrix(2.66667,0,0,2.66667,0,0)">
            <g transform="matrix(6.19694,0,0,6.19694,-915.141,-10257.5)">
                <path d="M164.081,1720.72L170.034,1720.72L170.034,1731.48C170.034,1739.85 176.82,1746.64 185.19,1746.64C193.561,1746.64 200.347,1739.85 200.347,1731.48L200.347,1711L206.3,1711L206.3,1731.48C206.3,1743.14 196.849,1752.59 185.19,1752.59C173.532,1752.59 164.081,1743.14 164.081,1731.48L164.081,1720.72Z" style="fill:url(#_Linear1);fill-rule:nonzero;"/>
            </g>
        </g>
        <g transform="matrix(2.66667,0,0,2.66667,0,0)">
            <g transform="matrix(6.19694,0,0,6.19694,-915.141,-10307.5)">
                <path d="M175.775,1725.65L181.729,1725.65L181.729,1740.04C181.729,1741.95 183.278,1743.5 185.19,1743.5C187.103,1743.5 188.653,1741.95 188.653,1740.04L188.653,1722.2L194.605,1722.2L194.605,1740.04C194.605,1745.24 190.39,1749.45 185.19,1749.45C179.991,1749.45 175.775,1745.24 175.775,1740.04L175.775,1725.65Z" style="fill:url(#_Linear2);"/>
            </g>
        </g>
    </g>
    <defs>
        <linearGradient id="_Linear1" x1="0" y1="0" x2="1" y2="0" gradientUnits="userSpaceOnUse" gradientTransform="matrix(7.26,37.43,37.43,-7.26,183.04,1718.52)"><stop offset="0" style="stop-color:rgb(54,217,255);stop-opacity:1"/><stop offset="0.59" style="stop-color:rgb(91,94,211);stop-opacity:1"/><stop offset="1" style="stop-color:rgb(167,24,192);stop-opacity:1"/></linearGradient>
        <linearGradient id="_Linear2" x1="0" y1="0" x2="1" y2="0" gradientUnits="userSpaceOnUse" gradientTransform="matrix(0.96,25.45,25.45,-0.96,184.16,1724.01)"><stop offset="0" style="stop-color:rgb(78,223,216);stop-opacity:1"/><stop offset="1" style="stop-color:rgb(51,75,243);stop-opacity:1"/></linearGradient>
    </defs>
</svg>
